# xmcd
#
# Track frame offsets: 
#        150
#        18422
#        40562
#        59591
#        72191
#        91635
#        108389
#        124813
#        141286
#        163135
#        181276
#        199276
#
# Disc length: 2842 seconds
#
# Revision: 1
# Processed by: cddbd v1.5.2PL0 Copyright (c) Steve Scherf et al.
# Submitted via: ExactAudioCopyFreeDBPlugin 1.0
#
DISCID=a50b180c
DTITLE=André Hazes - André Hazes 65 Jaar
DYEAR=2016
DGENRE=
TTITLE0=Het is koud zonder jou
TTITLE1='n vriend
TTITLE2='n beetje verliefd
TTITLE3=Zeg maar niets meer
TTITLE4=Geef mij je angst
TTITLE5=Kleine jongen
TTITLE6=Zomer
TTITLE7=De vlieger
TTITLE8=Ik leef m'm eigen leven
TTITLE9=Zij gelooft in mij
TTITLE10=Bloed, zweet en tranen
TTITLE11=Op de schoorsteen staat een foto
EXTD=
EXTT0=
EXTT1=
EXTT2=
EXTT3=
EXTT4=
EXTT5=
EXTT6=
EXTT7=
EXTT8=
EXTT9=
EXTT10=
EXTT11=
PLAYORDER=
